<svg width="274" height="274" viewBox="0 0 274 274" fill="none" xmlns="http://www.w3.org/2000/svg">
<path d="M137 259.73C127.981 259.73 119.419 255.163 113.482 247.057L101.951 231.645C99.5537 228.448 96.3571 226.621 92.9321 226.393C89.5071 226.165 86.0821 227.763 83.3421 230.617L76.8346 224.909L83.1137 230.731C66.5596 248.313 54.0012 246.943 47.9504 244.545C41.7854 242.148 31.3962 234.27 31.3962 208.925V80.3737C31.3962 29.6837 46.0096 14.2712 93.8454 14.2712H180.041C227.877 14.2712 242.49 29.6837 242.49 80.3737V208.925C242.49 234.156 232.101 242.034 225.936 244.545C219.885 246.943 207.327 248.313 190.773 230.731C188.033 227.763 184.494 226.279 181.069 226.507C177.644 226.735 174.333 228.562 171.935 231.759L160.405 247.171C154.582 255.163 146.02 259.73 137 259.73ZM92.2471 209.268C92.7037 209.268 93.2746 209.268 93.7312 209.268C102.18 209.725 110.171 214.177 115.537 221.37L127.182 236.782C132.776 244.203 141.339 244.203 146.933 236.782L158.464 221.37C163.83 214.177 171.821 209.725 180.384 209.268C188.946 208.811 197.28 212.35 203.445 218.972C212.122 228.22 217.716 229.361 219.771 228.562C222.511 227.42 225.48 220.799 225.48 208.925V80.3737C225.48 39.1596 218.287 31.3962 180.155 31.3962H93.8454C55.7137 31.3962 48.5212 39.1596 48.5212 80.3737V208.925C48.5212 220.913 51.4896 227.535 54.2296 228.562C56.2846 229.361 61.8787 228.22 70.5554 218.972C76.4921 212.693 84.2554 209.268 92.2471 209.268Z" fill="#5F61DF"/>
<path d="M171.25 159.834C164.857 159.834 159.834 154.696 159.834 148.417C159.834 142.138 164.971 137 171.25 137C177.53 137 182.667 142.138 182.667 148.417C182.667 154.696 177.644 159.834 171.25 159.834Z" fill="#5F61DF"/>
<path d="M102.75 102.75C96.3571 102.75 91.3337 97.6129 91.3337 91.3337C91.3337 85.0546 96.4712 79.9171 102.75 79.9171C109.03 79.9171 114.167 85.0546 114.167 91.3337C114.167 97.6129 109.144 102.75 102.75 102.75Z" fill="#5F61DF"/>
<path d="M98.5262 166.113C96.3571 166.113 94.1879 165.314 92.4754 163.601C89.1646 160.29 89.1646 154.81 92.4754 151.5L169.31 74.6654C172.62 71.3546 178.1 71.3546 181.411 74.6654C184.722 77.9762 184.722 83.4562 181.411 86.7671L104.577 163.601C102.979 165.314 100.81 166.113 98.5262 166.113Z" fill="#5F61DF"/>
</svg>
